<svg width="48" height="48" viewBox="0 0 48 48" fill="none" xmlns="http://www.w3.org/2000/svg">
<path d="M2.0459 9.49243V28.2528L13.021 23.441V14.6285L2.0459 9.49243Z" fill="#0058C0"/>
<path d="M2.0459 28.2528L13.021 33.3889L23.8338 28.2528L13.021 23.441L2.0459 28.2528Z" fill="#0B9CFF"/>
<path d="M2.0459 28.2528V38.2006L12.9399 43.0664V33.3889L2.0459 28.2528Z" fill="#006AE9"/>
<path d="M45.8921 38.4169V19.6565L34.917 24.4683V33.2808L45.8921 38.4169Z" fill="#0058C0"/>
<path d="M45.8924 19.6565L34.9174 14.5204L24.1045 19.6565L34.9174 24.4682L45.8924 19.6565Z" fill="#0B9CFF"/>
<path d="M45.892 19.6565V9.70869L34.998 4.8429V14.5204L45.892 19.6565Z" fill="#006AE9"/>
<path d="M34.9166 33.2808L12.9395 43.0664L24.1038 48L45.8917 38.4169L34.9166 33.2808Z" fill="#006AE9"/>
<path d="M2.0459 9.49242L23.8338 0L34.9981 4.84289L13.021 14.6285L2.0459 9.49242Z" fill="#006AE9"/>
</svg>
